<svg width="24" height="24" viewBox="0 0 24 24" fill="none" xmlns="http://www.w3.org/2000/svg">
  <path
    d="M21.4426 8.085H19.7611C19.6682 8.08615 19.5792 8.122 19.5114 8.1855C18.9744 7.32825 18.4186 6.642 17.9874 6.21075C16.4874 4.71075 7.48737 4.71075 5.98737 6.21075C5.55762 6.64125 5.00487 7.323 4.47087 8.17425C4.40653 8.11883 4.32477 8.08778 4.23987 8.0865H2.55762C2.35137 8.0865 2.18262 8.256 2.18262 8.4615V9.219C2.18262 9.4245 2.34762 9.624 2.55012 9.66375L3.57012 9.85875C2.68962 11.8223 2.17062 14.2658 2.98662 16.7138V18.1665C2.98662 18.5813 3.09162 18.9165 3.22137 18.9165H5.14287C5.27262 18.9165 5.37762 18.5813 5.37762 18.1665V16.9785C7.10112 17.1435 9.54012 17.3235 11.9866 17.3235C14.4106 17.3235 16.8766 17.1465 18.5971 16.983V18.1665C18.5971 18.5813 18.7021 18.9165 18.8311 18.9165H20.7526C20.8816 18.9165 20.9866 18.5813 20.9866 18.1665L20.9851 16.713C21.8004 14.268 21.2829 11.826 20.4039 9.8625L21.4479 9.66375C21.5498 9.64059 21.6411 9.58429 21.7076 9.50368C21.7741 9.42308 21.812 9.3227 21.8154 9.21825V8.46075C21.8156 8.41164 21.8061 8.36297 21.7874 8.31753C21.7688 8.27209 21.7414 8.23078 21.7068 8.19595C21.6721 8.16111 21.631 8.13345 21.5857 8.11454C21.5403 8.09564 21.4917 8.08585 21.4426 8.08575V8.085ZM5.33037 14.1803C4.97775 14.1685 4.6435 14.0202 4.3982 13.7666C4.1529 13.5131 4.01577 13.1741 4.01577 12.8213C4.01577 12.4684 4.1529 12.1294 4.3982 11.8759C4.6435 11.6223 4.97775 11.474 5.33037 11.4623C5.68298 11.4741 6.01719 11.6225 6.26242 11.8761C6.50765 12.1298 6.64469 12.4688 6.64459 12.8216C6.64449 13.1744 6.50727 13.5134 6.2619 13.7669C6.01653 14.0204 5.68299 14.1686 5.33037 14.1803ZM4.18737 10.2878C4.90737 8.64 5.91012 7.35 6.51762 6.741C6.95562 6.30225 9.02262 5.83575 11.9866 5.83575C14.9514 5.83575 17.0176 6.303 17.4564 6.74175C18.0639 7.34925 19.0659 8.63925 19.7859 10.2878C18.1869 10.4648 15.0721 10.0553 11.9874 10.0553C8.90262 10.0553 5.78787 10.4648 4.18737 10.2878ZM18.6429 14.1803C18.2903 14.1685 17.956 14.0202 17.7107 13.7666C17.4654 13.5131 17.3283 13.1741 17.3283 12.8213C17.3283 12.4684 17.4654 12.1294 17.7107 11.8759C17.956 11.6223 18.2903 11.474 18.6429 11.4623C18.9955 11.4741 19.3297 11.6225 19.5749 11.8761C19.8201 12.1298 19.9572 12.4688 19.9571 12.8216C19.957 13.1744 19.8198 13.5134 19.5744 13.7669C19.329 14.0204 18.9955 14.1686 18.6429 14.1803Z"
    fill="black" />
</svg>