<svg width="20" height="20" viewBox="0 0 20 20" fill="none" xmlns="http://www.w3.org/2000/svg">
  <path
    d="M9.99053 3.73251C5.26365 3.73251 1.43115 6.28064 1.43115 9.42376C1.43115 11.2219 2.68928 12.8238 4.64803 13.8663C4.36928 14.7913 3.81303 15.8144 2.73803 16.72C2.73803 16.72 5.24803 16.5538 7.02053 14.7556C7.1224 14.7806 7.22803 14.7994 7.33115 14.8219C7.2307 14.5317 7.17855 14.2271 7.17678 13.92C7.17678 11.7994 9.53678 10.1388 12.5518 10.1388C14.7162 10.1388 16.538 10.9988 17.3955 12.2675C18.1255 11.43 18.5499 10.4594 18.5499 9.42189C18.5499 6.27939 14.7174 3.73126 9.99053 3.73126V3.73251ZM17.2999 13.9213C17.2999 12.1775 15.1749 10.7631 12.5499 10.7631C9.92803 10.7631 7.80115 12.1781 7.80115 13.9219C7.80115 15.6656 9.92803 17.08 12.5512 17.08C13.1312 17.08 13.6843 17.0075 14.1987 16.88C15.1818 17.8788 16.5737 17.9706 16.5737 17.9706C15.978 17.4681 15.6699 16.9 15.5149 16.3869C16.6012 15.8088 17.2999 14.9194 17.2999 13.9213Z"
    fill="black" />
</svg>