<svg width="823" height="335" viewBox="0 0 823 335" fill="none" xmlns="http://www.w3.org/2000/svg">
  <mask id="mask0_187_117" style="mask-type:luminance" maskUnits="userSpaceOnUse" x="0" y="0"
    width="823" height="335">
    <path d="M823 0H0V335H823V0Z" fill="white" />
  </mask>
  <g mask="url(#mask0_187_117)">
    <path
      d="M559.767 6.67031V38.6361C559.771 44.0434 557.263 49.4022 552.375 54.43L503.905 15.0527L559.767 6.67031Z"
      fill="#878981" />
    <path d="M696.655 297.083H616.776V321.014H696.655V297.083Z" fill="#878981" />
    <path
      d="M476.028 273.055V304.242L415.177 315.226L418.873 314.27L368.419 281.822L476.028 273.055Z"
      fill="#878981" />
    <path
      d="M157.299 304.057L159.684 302.552L82.2456 282.238L114 266.221L110.523 265.072L195.882 286.366L157.299 304.057Z"
      fill="#878981" />
    <path
      d="M408.276 197.45C389.066 200.678 371.912 205.643 358.113 211.969L334.352 222.879L335.354 221.137L249.904 212.903L228.892 181.13L313.322 170.702L312.047 168.997L408.276 197.45Z"
      fill="#878981" />
    <path
      d="M399.701 85.7882L342.528 115.056H342.51L315.817 128.723L264.689 111.261L268.931 111.728L296.753 69.8238L399.701 85.7882Z"
      fill="#878981" />
    <path d="M126.636 41.3784L122.594 64.6209L61.1239 60.8633L57.1182 23.3314L126.636 41.3784Z"
      fill="#878981" />
    <path
      d="M143.843 150.869L147.849 151.61H116.531C100.62 138.942 91.0512 125.114 88.3818 110.928L190.346 107.771L143.843 150.869Z"
      fill="#878981" />
    <path
      d="M303.381 254.303L299.157 301.381C284.642 303.427 268.931 303.6 254.165 301.878L195.153 294.978L284.372 254.281L303.381 254.303Z"
      fill="#878981" />
    <path d="M627.919 288.174H565.102L497.915 300.292V249.138L537.08 233.01L627.919 288.174Z"
      fill="#878981" />
    <path d="M703.901 176.201L695.252 209.368L521.475 196.761L569.307 176.201H703.901Z"
      fill="#878981" />
    <path
      d="M784.618 136.505L713.916 145.933L713.224 146.036L361.465 115.39L393.274 99.1067L392.764 100.871L613.172 111.276L626.372 98.8398L784.618 136.505Z"
      fill="#878981" />
    <path
      d="M380.182 -8.00444H371.442V15.7124H380.2L380.182 -8.00444ZM495.638 16.3053L546.238 57.3725L554.068 55.779L503.905 15.0528L561.278 6.44059L558.256 3.098L426.885 22.8052L429.926 26.1478L495.638 16.3053ZM356.603 74.115H365.361V44.18H443.109V40.615H293.803V-8.00444H285.063V44.18H356.566L356.603 74.115ZM696.454 23.1535L690.792 81.9342L699.531 82.075L703.628 39.6293C715.318 37.7023 768.667 30.3649 807.668 49.4495L814.405 47.1742C775.022 27.9043 722.255 33.1516 703.992 35.7753L705.394 21.2339L721.781 -7.60422L713.242 -8.41207L697.365 19.4552L574.297 28.7418L575.881 32.2474L696.454 23.1535ZM715.245 230.157L588.117 257.624L543.871 230.735L536.588 232.721L629.54 289.167L636.823 287.181L593.124 260.603L719.433 233.299L715.245 230.157ZM756.686 149.757L748.183 150.602L775.003 194.989L705.667 210.442L709.873 213.57L777.243 198.569L806.867 247.596L815.37 246.744L784.672 195.931L823.072 141.827L814.587 140.819L780.393 188.993L756.686 149.757ZM333.333 224.613L335.354 221.144L249.904 212.91L228.892 181.137L313.304 170.709L310.773 167.3L226.616 177.676L213.178 157.354L204.73 158.28L240.217 211.969L149.542 203.231L45.3374 175.705V157.821H36.5793V177.639L142.186 205.514L87.3978 249.027L95.1908 250.65L119.626 231.187L243.986 264.709L248.811 261.745L123.686 228L150.124 206.951L333.333 224.613ZM635.458 81.4154L607.709 107.467L393.783 97.3279L392.764 100.871L613.08 111.247L626.354 98.8398L792.556 138.454L796.98 135.379L629.868 95.5491L643.378 82.831L635.458 81.4154ZM114.018 266.221L107.208 263.998L48.9425 293.407L14.7116 272.002V240.133H5.95353V273.062L44.1903 297.001V343.004H52.8026V297.053L76.6733 285.024L154.968 305.554L159.72 302.589L82.2631 282.238L114.018 266.221ZM475.227 269.49L359.006 278.962L332.459 292.013C325.773 295.306 317.452 297.986 308.042 299.877L312.157 254.111L303.399 253.977L299.138 301.411C284.635 303.454 268.937 303.627 254.183 301.908L192.731 294.741L190.309 298.172L226.725 302.419L212.578 342.79L221.245 343.286L235.21 303.412L251.725 305.339C267.349 307.161 283.939 307.088 299.463 305.129C314.987 303.17 328.77 299.41 339.123 294.311L360.772 283.646L411.5 316.175L418.892 314.27L368.438 281.822L476.903 272.988L475.227 269.49ZM704.375 176.209V172.644H569.181L449.008 125.951L349.392 173.288L356.038 175.608L449.645 131.139L501.866 151.454L390.633 185.013L395.841 187.874L447.915 172.162L516.432 198.954L569.235 176.246L704.375 176.209ZM516.177 193.863L455.089 169.975L508.329 153.915L561.26 174.489L516.177 193.863ZM76.6915 111.491L36.5065 107.874L18.863 64.0428L10.2142 64.6135L27.3115 107.044L-18.7183 102.894L-20.5391 106.377L74.8889 114.975L76.6915 111.491ZM770.597 321.015H705.413V297.083H696.654V321.015H616.776V297.083H608.018V321.8L529.196 341.485L533.784 344.524L613.608 324.579H696.618V343.004H705.376V324.579H775.022L822.362 298.135L815.298 296.038L770.597 321.015ZM122.576 64.7617L131.315 65.0137L140.62 11.3692L131.898 11.1172L127.346 37.3392L59.23 19.6553L54.6234 22.657L126.727 41.3784L122.576 64.7617ZM166.657 99.492L159.083 72.692L150.379 73.0997L157.954 99.8997L166.657 99.492ZM177.837 128.219L268.749 153.077L273.629 150.113L181.424 124.913L199.34 108.334L191.329 106.896L143.842 150.869L151.854 152.306L177.837 128.219ZM296.789 69.6681L288.341 68.7343L260.501 110.802L268.949 111.728L296.789 69.6681Z"
      fill="white" />
    <path
      d="M533.494 345.035L528.031 341.329L607.181 321.555V296.712H617.76V320.644H695.818V296.712H706.397V320.644H770.197L815.116 295.519L823.656 298.054L775.587 324.95H706.397V343.375H695.818V324.95H613.9L533.494 345.035ZM530.471 341.611L534.113 344.02L613.427 324.209H697.602V342.634H704.539V324.209H774.64L821.107 298.217L815.499 296.557L771.108 321.385H704.503V297.453H697.566V321.385H615.867V297.453H608.929V322.008L608.511 322.119L530.471 341.611ZM222.138 343.679L211.668 343.071L225.779 302.656L189.218 298.395L192.131 294.252L254.475 301.522C268.845 303.205 284.135 303.063 298.302 301.115L302.562 253.585L313.141 253.748L309.044 299.254C317.79 297.411 325.527 294.864 331.786 291.769L358.497 278.621H358.807L475.902 269.038L477.978 273.262L477.085 273.336L369.913 282.082L420.149 314.389L411.209 316.686L360.773 284.246L339.907 294.518C329.422 299.667 315.479 303.46 299.783 305.434C284.087 307.408 267.318 307.478 251.525 305.636L236.012 303.872L222.138 343.679ZM213.634 342.411L220.499 342.812L234.501 302.879L252.017 304.924C267.478 306.723 283.892 306.649 299.251 304.711C314.611 302.774 328.251 299.057 338.505 294.014L360.955 282.956L411.774 315.634L417.637 314.151L366.964 281.541L475.829 272.647L474.464 269.883L359.444 279.251L333.206 292.243C326.447 295.578 318.026 298.292 308.498 300.203L307.132 300.477L311.266 254.459L304.328 254.355L300.031 301.648L299.449 301.73C284.766 303.805 268.866 303.981 253.929 302.234L193.351 295.171L191.53 297.883L227.946 302.123L213.634 342.411ZM53.7685 343.345H43.1897V297.06L5.04403 273.129V239.718H15.6229V271.854L48.9434 292.754L107.081 263.457L115.311 266.162L83.5932 282.149L160.959 302.449L155.223 306.095L76.9291 285.55L53.7685 297.201V343.345ZM45.0105 342.604H51.9477V296.927L76.4739 284.535L77.1658 284.713L154.768 305.043L158.537 302.671L80.9166 282.326L112.744 266.281L107.282 264.502L48.7978 294.022L13.8021 272.069V240.459H6.86483V272.906L45.1016 296.846L45.0105 342.604ZM629.304 289.649L628.794 289.345L535.315 232.617L544.109 230.224L588.445 257.179L715.573 229.653L720.526 233.455L594.363 260.737L638.062 287.285L629.304 289.649ZM537.864 232.818L629.814 288.656L635.568 287.085L591.759 260.462L718.141 233.151L714.9 230.653L587.863 258.076L543.617 231.239L537.864 232.818ZM244.187 265.221L120.027 231.728L95.6286 251.154L86.2151 249.197L140.839 205.64L35.6698 177.876V157.45H46.2487V175.504L149.907 202.882L238.944 211.465L203.602 158.028L213.817 156.909L227.254 177.224L311.375 166.848L314.452 170.961L230.003 181.397L250.633 212.606L336.447 220.863L334.026 225.05L150.617 207.381L124.871 227.874L250.032 261.626L244.187 265.221ZM119.335 230.653L120.191 230.883L243.678 264.19L247.501 261.841L122.522 228.126L149.633 206.522L150.344 206.588L332.66 224.154L334.262 221.411L249.158 213.207L227.782 180.878L312.176 170.465L310.173 167.759L225.979 178.135L212.542 157.798L205.841 158.539L241.493 212.466L149.051 203.542L44.4279 175.905V158.191H37.4906V177.461L143.279 205.41L88.655 248.893L94.8275 250.183L119.335 230.653ZM806.122 248.048L776.57 199.132L709.51 214.081L704.43 210.309L773.948 194.804L747.091 150.335L757.361 149.305L780.467 187.563L813.896 140.381L824.056 141.575L785.456 195.938L816.318 247.018L806.122 248.048ZM777.772 198.013L807.451 247.151L814.188 246.477L783.653 195.923V195.827L821.799 142.086L815.135 141.3L780.266 190.431L755.959 150.202L749.222 150.876L775.987 195.175L706.797 210.59L710.129 213.066L777.772 198.013ZM516.506 199.444L447.916 172.614L395.732 188.356L389.432 184.902L500.501 151.38L449.737 131.643L356.185 176.112L348.137 173.318L448.972 125.395L449.664 125.669L569.546 172.28H705.286V176.586H569.709L516.506 199.444ZM448.044 171.643L516.451 198.391L568.926 175.838H703.465V173.014H568.726L568.471 172.91L449.009 126.462L350.686 173.229L355.966 175.06L449.591 130.591L503.305 151.484L391.927 185.08L396.06 187.348L448.044 171.643ZM516.214 194.389L453.688 169.931L508.403 153.418L562.627 174.474L516.214 194.389ZM456.51 170.012L516.142 193.336L559.968 174.504L508.258 154.396L456.51 170.012ZM268.968 153.581L178.238 128.767L152.274 152.796L142.587 151.061L190.856 106.392L200.543 108.126L182.572 124.765L274.941 150.009L268.968 153.581ZM177.419 127.641L268.459 152.536L272.319 150.194L180.259 125.032L198.121 108.512L191.785 107.37L144.99 150.676L151.327 151.817L177.419 127.641ZM792.848 138.943L792.065 138.758L626.755 99.3586L613.682 111.662H613.008L391.708 101.211L392.928 96.935L607.09 107.044L634.839 80.941L644.562 82.6382L630.997 95.3934L798.201 135.245L792.848 138.943ZM625.899 98.2988L792.193 137.928L795.707 135.497L628.721 95.6973L642.195 83.0236L635.841 81.9045L608.292 107.845L394.585 97.7429L393.784 100.544L612.607 110.876L625.899 98.2988ZM75.4906 115.412L-21.7217 106.659L-19.4275 102.457L26.1835 106.563L9.10441 64.3096L19.5376 63.6129L37.2357 107.563L77.712 111.21L75.4906 115.412ZM-19.5367 106.096L74.1068 114.53L75.5999 111.773L35.7062 108.208L35.6152 107.963L18.2084 64.4801L11.3622 64.9396L28.5141 107.541L-17.9526 103.353L-19.5367 106.096ZM269.588 112.181L259.373 111.061L287.777 68.2747L297.992 69.4013L269.588 112.181ZM261.612 110.543L268.313 111.284L295.752 69.9275L289.052 69.1864L261.612 110.543ZM157.153 100.307L149.306 72.7735L159.812 72.2844L167.587 99.8181L157.153 100.307ZM151.4 73.4257L158.683 99.4846L165.693 99.1659L158.41 73.0996L151.4 73.4257ZM700.406 82.4604L689.846 82.2899L695.545 23.5982L575.154 32.6773L573.224 28.4453L696.674 19.1365L712.624 -8.85677L722.857 -7.87846L706.287 21.3155L704.958 35.2491C726.189 32.2845 776.661 28.1192 815.116 46.937L815.699 47.2187L807.56 49.9757L806.977 49.6571C768.741 30.9578 716.102 37.9913 704.503 39.859L700.406 82.4604ZM691.739 81.5784L698.658 81.6896L702.828 39.3773L703.374 39.2884C713.917 37.5467 768.267 29.8832 807.888 48.9233L813.223 47.1149C774.786 28.5861 724.368 33.248 704.394 36.1162L703.119 36.3015L704.576 21.2117L720.836 -7.33741L714.08 -7.9748L698.258 19.7665L575.372 29.0382L576.628 31.8176L697.365 22.7014L691.739 81.5784ZM366.272 74.4337H355.693V44.5505H284.19V-8.37503H294.751V40.2444H444.056V44.5505H366.308L366.272 74.4337ZM357.514 73.6926H364.451V43.8094H442.199V40.9856H292.894V-7.63388H285.975V43.8094H357.477L357.514 73.6926ZM132.154 65.4139L121.611 65.11L125.635 41.5785L53.2769 22.7755L58.9578 19.1439L126.546 36.6869L131.043 10.7467L141.604 11.0505V11.4211L132.154 65.4139ZM123.541 64.4208L130.46 64.6209L139.564 11.7102L132.645 11.5175L128.148 37.9839L59.5041 20.1963L55.8625 22.5754L127.584 41.1857L123.541 64.4208ZM545.802 57.869L495.257 16.75L429.381 26.6221L425.739 22.5828L558.785 2.62365L562.426 6.66292L505.18 15.2528L555.343 55.942L545.802 57.869ZM496.076 15.8235L546.622 56.8759L552.812 55.6159L502.631 14.823L560.114 6.21823L557.71 3.57232L428.07 23.0275L430.455 25.6734L496.076 15.8235ZM381.093 16.1126H370.514V-8.34538H381.093V16.1126ZM372.335 15.3714H379.272V-7.60423H372.335V15.3714Z"
      fill="#B1C0C9" />
    <path
      d="M846.088 137.698L839.278 129.227L713.934 145.94L713.224 146.036L361.464 115.39L415.141 87.8708H454.052C470.383 87.865 486.542 86.5162 501.561 83.9053C516.58 81.2945 530.147 77.4753 541.45 72.6772L697.948 87.767L846.506 44.5728L838.859 40.2222L695.162 82.0083L551.027 68.1117C566.662 59.6032 575.101 49.2614 575.08 38.6361V-8.00445H559.767V38.6361C559.754 49.592 549.465 60.1324 531.001 68.104C512.537 76.0756 487.293 80.8767 460.425 81.5265V52.6217C460.372 42.8242 450.789 33.4339 433.773 26.5047C416.756 19.5754 393.691 15.6711 369.621 15.6457H179.894L83.7564 -10.5985L75.2168 -5.41043L100.89 1.60086L43.4439 18.5287L47.8867 60.0331L-18.5542 55.9716L-20.812 62.138L89.2188 68.927C78.554 81.0607 73.6121 93.9049 74.6524 106.785C75.9468 122.331 85.1669 137.598 101.728 151.617H-19.6831V157.85H274.248L408.277 197.479C389.066 200.694 371.91 205.649 358.114 211.969L285.282 245.387L284.335 245.825L279.437 248.048L210.666 279.584L-13.9658 223.575L-25.4004 231.172L195.881 286.373L76.2729 341.218L86.087 344.768L284.317 254.303H476.047V304.25L283.771 338.935L292.638 347.088L569.745 297.09H842.683V288.196H785.965V252.517H842.683V247.174H750.951L707.78 212.006L722.856 154.159L846.088 137.698ZM369.621 20.9968C390.215 21.0105 409.955 24.347 424.515 30.2751C439.075 36.2031 447.268 44.2391 447.297 52.6217V81.6229H409.843L249.158 56.7202C254.448 51.9863 255.447 46.6425 251.977 41.6372C248.507 36.6319 240.793 32.289 230.203 29.3792L199.468 20.9968H369.621ZM61.1239 60.8707L56.8814 21.1598L112.543 4.77298L221.664 34.5672C230.094 36.885 235.942 40.4617 237.939 44.5224C239.937 48.583 237.922 52.8004 232.333 56.2607L223.594 61.6266C219.533 64.1157 213.814 66.0824 207.107 67.2966C200.4 68.5107 192.982 68.922 185.721 68.4823L61.1239 60.8707ZM102.492 69.7052L183.463 74.6486C186.091 74.8108 188.744 74.8926 191.402 74.8932C200.305 74.8891 209.067 73.9907 216.913 72.2776C224.758 70.5646 231.443 68.0898 236.376 65.073L242.348 61.3672L399.701 85.7511L342.546 115.019L315.871 128.686L225.159 97.7058L87.8167 101.967C88.1767 90.9523 93.1395 80.0425 102.492 69.7052ZM271.189 151.587H116.531C100.614 138.921 91.0448 125.092 88.3812 110.906L217.822 106.904L302.252 135.697L271.189 151.587ZM302.798 245.387L367.946 215.519C382.014 209.071 399.911 204.201 419.924 201.373C439.938 198.546 461.4 197.856 482.256 199.369L582.655 206.633L488.501 245.387H302.798ZM742.885 252.517H772.891V288.174H565.102L497.933 300.299V249.16L598.423 207.789L696.637 214.934L742.885 252.517ZM695.307 209.368L484.568 194.085C464.229 192.623 443.341 193.049 423.462 195.33L285.173 154.448L352.324 120.066L710.42 151.261L695.307 209.368Z"
      fill="#898989" />
    <path
      d="M291.71 348.059L281.368 338.557L474.227 303.76V255.045H285.137L86.2513 345.828L73.7061 341.3L193.005 286.544L-27.9126 231.417L-14.5662 222.56L210.284 278.672L356.749 211.502C370.024 205.433 386.341 200.594 404.599 197.309L273.666 158.562H-21.5034V150.846H98.9241C83.0344 137.022 74.1895 122.031 72.9231 106.778C71.8951 94.1092 76.6045 81.472 86.8158 69.4976L-22.8872 62.8273L-20.0285 55.1564L46.03 59.1957L41.5872 18.1507L97.7406 1.61568L72.7228 -5.18808L83.2834 -11.599L180.441 14.9045H369.622C394.174 14.93 417.703 18.9124 435.061 25.9806C452.419 33.0489 462.193 42.6276 462.246 52.6217V80.7854C488.622 79.9061 513.203 74.9972 531.054 67.0444C548.373 59.2745 557.96 49.1572 557.947 38.6658V-8.7456H576.901V38.6361C576.974 49.0401 568.998 59.1893 554.105 67.6448L694.78 81.2078L839.387 39.1846L849.129 44.7432L698.33 88.5674L542.033 73.4999C530.579 78.2682 516.906 82.0603 501.813 84.6549C486.72 87.2495 470.509 88.5946 454.125 88.6119H416.089L364.724 114.915L713.133 145.265H713.37L840.443 128.323L848.382 138.202L724.568 154.708L709.637 211.902L752.08 246.462H844.504V253.288H787.786V287.463H844.504V297.839H570.128L291.71 348.059ZM286.248 339.313L293.64 346.102L569.363 296.342H840.862V288.93H784.144V251.776H840.862V247.915H749.822L705.905 212.147L721.181 153.596L843.794 137.291L838.113 130.235L713.315 146.866L358.26 115.931L414.377 87.1963H454.18C470.25 87.1785 486.147 85.8445 500.924 83.2737C515.701 80.7029 529.056 76.948 540.194 72.2325L540.777 71.8916L697.475 86.9962L843.958 44.3949L838.495 41.2524L695.544 82.8087L547.896 68.5712L549.571 67.667C565 59.2937 573.309 49.1028 573.242 38.6361V-7.2633H561.57V38.6361C561.588 49.4954 551.662 59.9676 533.73 68.0079C514.788 76.4397 488.549 81.5515 460.534 82.2677L458.604 82.3195V52.6217C458.551 43.0208 449.161 33.819 432.486 27.0288C415.811 20.2385 393.209 16.4123 369.622 16.3868H179.33L84.2849 -9.55346L77.7847 -5.61795L104.113 1.57121L45.3198 18.8771L49.8172 60.9299L-17.006 56.8462L-18.8268 61.5451L91.6591 68.297L91.04 69.1419C80.46 81.1887 75.5492 93.9389 76.5647 106.726C77.8299 122.168 86.9891 137.333 103.458 151.254L104.751 152.321H-17.8618V157.072H274.94L275.414 157.22L411.974 197.62L408.969 198.124C390.027 201.317 373.107 206.215 359.48 212.451L210.994 280.548L-13.3644 224.569L-22.9054 230.898L198.686 286.173L78.8407 341.174L85.9418 343.738L283.498 253.562H477.868V304.702L286.248 339.313ZM496.185 301.433V248.812L597.877 206.951L697.93 214.215L744.032 251.754H774.731V288.893H565.503L496.185 301.433ZM499.827 249.449V299.158L564.793 287.433H771.089V253.258H741.72L695.417 215.564L599.042 208.575L499.827 249.449ZM489.412 246.129H298.757L366.581 215C380.854 208.464 399.005 203.527 419.302 200.661C439.598 197.795 461.361 197.095 482.511 198.628L586.297 206.158L489.412 246.129ZM306.932 244.646H487.883L579.013 207.114L481.965 200.074C461.407 198.583 440.253 199.266 420.529 202.056C400.804 204.846 383.17 209.65 369.312 216.008L306.932 244.646ZM696.928 210.235L484.332 194.811C464.264 193.377 443.66 193.797 424.046 196.042L423.19 196.138L422.48 195.93L282.661 154.589L351.687 119.244L352.798 119.34L712.496 150.668L696.928 210.235ZM460.826 192.492C468.895 192.492 476.95 192.779 484.896 193.351L693.724 208.5L708.509 151.839L353.034 120.882L287.777 154.3L423.809 194.522C435.869 193.175 448.319 192.492 460.826 192.492ZM272.064 152.329H115.475L114.965 151.936C98.8852 139.187 89.2455 125.256 86.6155 110.965L86.4698 110.224L218.496 106.14L304.747 135.63L272.064 152.329ZM117.715 150.846H270.297L299.685 135.801L217.294 107.637L90.421 111.558C93.1735 125.251 102.444 138.595 117.715 150.846ZM316.182 129.775L224.614 98.5063L86.0329 102.805V101.997C86.3743 90.8845 91.3617 79.8768 100.781 69.4458L101.309 68.8825L183.737 73.9149C186.274 74.0718 188.836 74.1511 191.402 74.1521C200.012 74.1584 208.491 73.295 216.08 71.6393C223.668 69.9836 230.129 67.5874 234.883 64.6653L241.638 60.5001L402.706 85.4546L316.182 129.775ZM225.779 96.9795L315.635 127.663L396.788 86.1142L243.113 62.3011L237.942 65.4806C232.866 68.6078 225.961 71.1728 217.847 72.9451C209.733 74.7174 200.665 75.6415 191.457 75.6344C188.708 75.6321 185.964 75.5479 183.245 75.3824L103.786 70.5278C95.0381 80.3746 90.2903 90.7358 89.7291 101.204L225.779 96.9795ZM449.173 82.3788H409.516L246.682 57.1797L247.501 56.4386C252.556 51.86 253.49 46.7033 250.141 41.8723C246.792 37.0413 239.373 32.8442 229.184 30.0166L193.478 20.2556H369.622C390.698 20.2693 410.902 23.684 425.803 29.751C440.705 35.8181 449.089 44.0425 449.118 52.6217L449.173 82.3788ZM410.226 80.8965H445.531V52.6217C445.502 44.4318 437.494 36.581 423.264 30.7913C409.033 25.0016 389.742 21.7458 369.622 21.7379H205.441L231.241 28.7788C241.87 31.7279 249.69 36.073 253.392 41.0875C257.094 46.102 256.454 51.4819 251.58 56.3274L410.226 80.8965ZM191.402 69.3939C189.416 69.3934 187.432 69.3339 185.467 69.216L59.3764 61.5155L55.0247 20.7892L112.507 3.86878L222.684 33.9521C231.518 36.3771 237.646 40.1231 239.736 44.3763C241.826 48.6295 239.709 53.0466 233.845 56.6683L225.123 62.0417C221.419 64.3006 216.405 66.1532 210.523 67.4355C204.642 68.7179 198.074 69.3905 191.402 69.3939ZM62.8723 60.2259L186.013 67.7485C192.936 68.169 200.01 67.7782 206.408 66.6219C212.805 65.4655 218.261 63.5915 222.137 61.219L230.859 55.8531C236.194 52.5573 238.119 48.5379 236.217 44.6677C234.315 40.7974 228.738 37.389 220.699 35.1824L112.58 5.66977L58.7391 21.4933L62.8723 60.2259Z"
      fill="#898989" />
    <path d="M173.388 43.9812L147.479 42.9304L143.635 58.6318L169.544 59.6826L173.388 43.9812Z"
      fill="#B1C0C9" />
    <path d="M181.279 27.857L157.674 22.3095L151.993 26.3147L175.598 31.8622L181.279 27.857Z"
      fill="#B1C0C9" />
    <path d="M207.401 40.2652L188.938 39.5137L185.469 53.6326L203.932 54.3841L207.401 40.2652Z"
      fill="#B1C0C9" />
    <path d="M181.871 78.9718L170.565 79.617L174.504 91.0523L185.81 90.4071L181.871 78.9718Z"
      fill="#B1C0C9" />
    <path d="M266.928 85.7214H233.717V75.4417H273.173L266.928 85.7214Z" fill="#B1C0C9" />
    <path d="M260.483 95.0599H233.717V89.2567H263.159L260.483 95.0599Z" fill="#B1C0C9" />
    <path d="M220.117 78.6434H197.466V90.2276H220.117V78.6434Z" fill="#B1C0C9" />
    <path d="M341.873 49.0716H318.713V61.3969H341.873V49.0716Z" fill="#B1C0C9" />
    <path d="M422.388 48.323H380.837V52.6662H422.388V48.323Z" fill="#B1C0C9" />
    <path d="M433.423 57.3724H407.677V65.9846H433.423V57.3724Z" fill="#B1C0C9" />
    <path d="M403.269 69.4235H385.261V74.0631H403.269V69.4235Z" fill="#B1C0C9" />
    <path d="M330.292 25.7772H313.049V36.8871H330.292V25.7772Z" fill="#B1C0C9" />
    <path d="M399.7 27.8228H346.751V34.8563H399.7V27.8228Z" fill="#B1C0C9" />
    <path d="M484.837 22.9927L473.487 25.1149L490.814 40.4708L502.165 38.3486L484.837 22.9927Z"
      fill="#B1C0C9" />
    <path d="M504.978 51.3098H473.77V65.9772H504.978V51.3098Z" fill="#B1C0C9" />
    <path d="M528.668 51.3098H516.688V57.3724H528.668V51.3098Z" fill="#B1C0C9" />
    <path d="M630.651 34.1596H594.217V42.6532H630.651V34.1596Z" fill="#B1C0C9" />
    <path d="M661.076 34.1596H641.266V53.3109H661.076V34.1596Z" fill="#B1C0C9" />
    <path d="M634.911 58.6472H592.596V66.7035H634.911V58.6472Z" fill="#B1C0C9" />
    <path d="M677.7 63.5314H667.794V72.8921H677.7V63.5314Z" fill="#B1C0C9" />
    <path d="M748.111 42.6532H730.066V52.1547H748.111V42.6532Z" fill="#B1C0C9" />
    <path d="M730.084 58.0617H717.338V64.9766H730.084V58.0617Z" fill="#B1C0C9" />
    <path d="M690.082 91.7618H659.311V99.3957H690.082V91.7618Z" fill="#B1C0C9" />
    <path d="M748.11 106.592H717.338V89.7459L748.11 81.4079V106.592Z" fill="#B1C0C9" />
    <path d="M792.411 100.693H754.83V106.6H792.411V100.693Z" fill="#B1C0C9" />
    <path d="M804.027 80.0961H770.761V90.7538H804.027V80.0961Z" fill="#B1C0C9" />
    <path d="M801.552 117.68H784.564V125.921H801.552V117.68Z" fill="#B1C0C9" />
    <path d="M587.498 85.425H555.034V92.7031H587.498V85.425Z" fill="#B1C0C9" />
    <path d="M354.528 147.511H320.023V153.915H354.528V147.511Z" fill="#B1C0C9" />
    <path d="M382.458 129.242H368.001V138.677H382.458V129.242Z" fill="#B1C0C9" />
    <path d="M408.422 131.725H397.57V136.942H408.422V131.725Z" fill="#B1C0C9" />
    <path d="M399.948 168.198L383.521 173.327L390.924 177.255L407.351 172.126L399.948 168.198Z"
      fill="#B1C0C9" />
    <path d="M438.988 151.802L416.565 158.803L428.456 165.113L450.878 158.112L438.988 151.802Z"
      fill="#B1C0C9" />
    <path d="M190.2 171.71H159.683V185.339H190.2V171.71Z" fill="#B1C0C9" />
    <path d="M215.073 192.151H199.341V202.89H215.073V192.151Z" fill="#B1C0C9" />
    <path d="M133.373 164.713H69.9551V171.71H133.373V164.713Z" fill="#B1C0C9" />
    <path d="M184.082 221.982H158.227V228.919H184.082V221.982Z" fill="#B1C0C9" />
    <path d="M214.198 221.982H194.879V236.086H214.198V221.982Z" fill="#B1C0C9" />
    <path d="M260.192 249.145H235.21V235.041H290.599L260.192 249.145Z" fill="#B1C0C9" />
    <path d="M270.716 223.02L235.21 220.01V231.231H270.716V223.02Z" fill="#B1C0C9" />
    <path d="M67.5875 232.862L26.0552 224.079V204.417H67.5875V232.862Z" fill="#B1C0C9" />
    <path d="M105.916 217.92H78.2212V197.524L105.916 204.417V217.92Z" fill="#B1C0C9" />
    <path d="M59.2119 192.151L26.0552 183.442V199.962H59.2119V192.151Z" fill="#B1C0C9" />
    <path d="M453.706 230.883H398.007V239.08H453.706V230.883Z" fill="#B1C0C9" />
    <path d="M388.886 230.883H364.651V239.08H388.886V230.883Z" fill="#B1C0C9" />
    <path d="M465.669 211.028H418.784V225.369H465.669V211.028Z" fill="#B1C0C9" />
    <path d="M517.762 224.287L485.188 236.901V211.035H517.762V224.287Z" fill="#B1C0C9" />
    <path d="M643.558 152.633L587.06 148.486L582.349 159.121L638.848 163.267L643.558 152.633Z"
      fill="#B1C0C9" />
    <path d="M774.821 216.179H745.033V223.776H774.821V216.179Z" fill="#B1C0C9" />
    <path d="M794.085 240.281H756.868L745.743 230.787H787.73L794.085 240.281Z" fill="#B1C0C9" />
    <path d="M661.349 269.386H631.106V258.758L661.349 253.029V269.386Z" fill="#B1C0C9" />
    <path d="M717.686 251.85H679.577V258.765H717.686V251.85Z" fill="#B1C0C9" />
    <path d="M738.006 274.107H682.49V282.875H738.006V274.107Z" fill="#B1C0C9" />
    <path d="M754.156 263.145H717.704V268.371H754.156V263.145Z" fill="#B1C0C9" />
    <path d="M531.855 328.515H486.189V318.487L531.855 310.661V328.515Z" fill="#B1C0C9" />
    <path d="M565.21 321.793H548.386V308.215L565.21 305.65V321.793Z" fill="#B1C0C9" />
    <path d="M595.563 306.992H579.631V316.775H595.563V306.992Z" fill="#B1C0C9" />
    <path d="M613.444 226.622H577.355V236.909H613.444V226.622Z" fill="#B1C0C9" />
    <path d="M673.476 229.408H646.237V217.387L673.476 218.988V229.408Z" fill="#B1C0C9" />
    <path d="M611.149 248.508L592.449 252.399V242.364H611.149V248.508Z" fill="#B1C0C9" />
    <path d="M378.671 306.992H344.148V316.775H378.671V306.992Z" fill="#B1C0C9" />
    <path d="M286.247 315.752H251.725V325.913H286.247V315.752Z" fill="#B1C0C9" />
    <path d="M326.085 310.661H302.797V325.054H326.085V310.661Z" fill="#B1C0C9" />
    <path d="M79.8241 304.694H59.9956V319.006H79.8241V304.694Z" fill="#B1C0C9" />
    <path d="M113.491 301.344H97.0308V313.069H113.491V301.344Z" fill="#B1C0C9" />
    <path d="M187.942 319.013H159.683V327.692H187.942V319.013Z" fill="#B1C0C9" />
    <path d="M213.014 323.349H199.922V307.896H218.276L213.014 323.349Z" fill="#B1C0C9" />
    <path d="M43.8264 253.97H24.1436V266.933H43.8264V253.97Z" fill="#B1C0C9" />
    <path d="M69.9176 274.7L48.1045 284.268V272.276H69.9176V274.7Z" fill="#B1C0C9" />
    <path d="M74.1055 262.167H48.1045V267.4H74.1055V262.167Z" fill="#B1C0C9" />
  </g>
</svg>