<svg width="24" height="24" viewBox="0 0 24 24" fill="none" xmlns="http://www.w3.org/2000/svg">
<rect width="24" height="24" rx="4" fill="#737373"/>
<g clip-path="url(#clip0_601_1553)">
<path d="M17.5452 6.90699C16.5078 6.43057 15.413 6.09074 14.2882 5.89599C14.278 5.89427 14.2675 5.89575 14.2582 5.90023C14.2489 5.90471 14.2412 5.91196 14.2362 5.92099C14.0952 6.17099 13.9392 6.49799 13.8302 6.75399C12.6178 6.57015 11.3846 6.57015 10.1722 6.75399C10.0511 6.46857 9.91353 6.19044 9.76017 5.92099C9.75515 5.91196 9.74745 5.90471 9.73814 5.90023C9.72883 5.89575 9.71836 5.89427 9.70817 5.89599C8.58317 6.08999 7.48817 6.42999 6.45117 6.90699C6.44225 6.9103 6.43481 6.91668 6.43017 6.92499C4.35617 10.024 3.78717 13.047 4.06617 16.032C4.06817 16.0467 4.07517 16.059 4.08717 16.069C5.29514 16.9632 6.64593 17.6462 8.08217 18.089C8.09231 18.0922 8.10321 18.0921 8.11328 18.0887C8.12335 18.0852 8.13207 18.0787 8.13817 18.07C8.44684 17.65 8.7195 17.207 8.95617 16.741C8.96109 16.7314 8.96277 16.7205 8.96097 16.7098C8.95917 16.6992 8.95398 16.6894 8.94617 16.682L8.92817 16.671C8.49753 16.5049 8.0803 16.306 7.68017 16.076C7.669 16.0697 7.66069 16.0593 7.65697 16.047C7.65325 16.0347 7.65439 16.0215 7.66017 16.01L7.67517 15.991C7.75984 15.9277 7.8425 15.8627 7.92317 15.796C7.93024 15.7903 7.93872 15.7867 7.9477 15.7854C7.95668 15.7842 7.96583 15.7854 7.97417 15.789C10.5932 16.985 13.4282 16.985 16.0152 15.789C16.0238 15.785 16.0333 15.7836 16.0427 15.7848C16.0521 15.786 16.0609 15.7899 16.0682 15.796C16.1488 15.8627 16.2315 15.9277 16.3162 15.991C16.3232 15.9958 16.3289 16.0023 16.3327 16.01C16.3365 16.0176 16.3383 16.0261 16.3379 16.0346C16.3375 16.0431 16.3349 16.0514 16.3304 16.0586C16.3259 16.0659 16.3196 16.0719 16.3122 16.076C15.9138 16.3097 15.4959 16.5084 15.0632 16.67C15.0563 16.6725 15.05 16.6765 15.0448 16.6816C15.0396 16.6868 15.0357 16.6931 15.0332 16.7C15.0307 16.7066 15.0297 16.7137 15.0303 16.7208C15.0308 16.7279 15.0328 16.7348 15.0362 16.741C15.2762 17.206 15.5512 17.65 15.8532 18.07C15.8593 18.0787 15.868 18.0852 15.8781 18.0887C15.8881 18.0921 15.899 18.0922 15.9092 18.089C17.3482 17.6487 18.7014 16.9655 19.9102 16.069C19.9162 16.0647 19.9212 16.0592 19.9248 16.0528C19.9284 16.0464 19.9306 16.0393 19.9312 16.032C20.2652 12.581 19.3722 9.58299 17.5652 6.92599C17.5636 6.92145 17.561 6.91736 17.5575 6.91405C17.554 6.91075 17.5498 6.90832 17.5452 6.90699ZM9.34717 14.214C8.55817 14.214 7.90917 13.49 7.90917 12.602C7.90917 11.714 8.54617 10.989 9.34717 10.989C10.1542 10.989 10.7972 11.719 10.7852 12.602C10.7852 13.49 10.1482 14.214 9.34717 14.214ZM14.6632 14.214C13.8752 14.214 13.2252 13.49 13.2252 12.602C13.2252 11.714 13.8622 10.989 14.6632 10.989C15.4702 10.989 16.1142 11.719 16.1012 12.602C16.1012 13.49 15.4702 14.214 14.6632 14.214Z" fill="white"/>
</g>
<defs>
<clipPath id="clip0_601_1553">
<rect width="16" height="16" fill="white" transform="translate(4 4)"/>
</clipPath>
</defs>
</svg>
