<svg width="20" height="20" viewBox="0 0 20 20" fill="none" xmlns="http://www.w3.org/2000/svg">
  <path fill-rule="evenodd" clip-rule="evenodd"
    d="M7.68514 5.42199C7.68514 4.80802 7.92904 4.21919 8.36319 3.78504C8.79734 3.3509 9.38617 3.10699 10.0001 3.10699C10.6141 3.10699 11.2029 3.3509 11.6371 3.78504C12.0712 4.21919 12.3151 4.80802 12.3151 5.42199C12.3151 6.03597 12.0712 6.6248 11.6371 7.05895C11.2029 7.49309 10.6141 7.73699 10.0001 7.73699C9.38617 7.73699 8.79734 7.49309 8.36319 7.05895C7.92904 6.6248 7.68514 6.03597 7.68514 5.42199ZM5.44614 9.21399C5.91739 8.76664 6.54237 8.51723 7.19214 8.51723C7.84191 8.51723 8.4669 8.76664 8.93814 9.21399L8.94814 9.22399L10.0001 10.276L11.0531 9.22399L11.0631 9.21399C11.5343 8.76722 12.1588 8.51818 12.8081 8.51818C13.4574 8.51818 14.082 8.76722 14.5531 9.21399C14.7872 9.43594 14.9736 9.70318 15.1011 9.99944C15.2286 10.2957 15.2945 10.6148 15.2947 10.9374C15.295 11.2599 15.2297 11.5791 15.1027 11.8756C14.9757 12.1721 14.7898 12.4396 14.5561 12.662L10.3481 16.752C10.2548 16.8427 10.1298 16.8935 9.99964 16.8935C9.86949 16.8935 9.74447 16.8427 9.65114 16.752L5.44414 12.662C5.2106 12.4397 5.02469 12.1723 4.89772 11.8759C4.77076 11.5796 4.70538 11.2605 4.70557 10.9381C4.70575 10.6157 4.7715 10.2966 4.89881 10.0004C5.02612 9.70423 5.21234 9.436 5.44614 9.21399Z"
    fill="black" />
</svg>