<svg width="12" height="14" viewBox="0 0 12 14" fill="none" xmlns="http://www.w3.org/2000/svg">
<path fill-rule="evenodd" clip-rule="evenodd" d="M6.00014 13.1257L6.4809 12.584C7.02643 11.9592 7.51709 11.3665 7.95366 10.8027L8.31404 10.3272C9.81881 8.2998 10.5716 6.69066 10.5716 5.50133C10.5716 2.96266 8.52509 0.904755 6.00014 0.904755C3.47519 0.904755 1.42871 2.96266 1.42871 5.50133C1.42871 6.69066 2.18147 8.2998 3.68623 10.3272L4.04662 10.8027C4.66943 11.6007 5.32103 12.375 6.00014 13.1257Z" stroke="black" stroke-linecap="round" stroke-linejoin="round"/>
<path d="M5.99998 7.38093C7.05195 7.38093 7.90474 6.52814 7.90474 5.47617C7.90474 4.4242 7.05195 3.57141 5.99998 3.57141C4.94801 3.57141 4.09521 4.4242 4.09521 5.47617C4.09521 6.52814 4.94801 7.38093 5.99998 7.38093Z" stroke="black" stroke-linecap="round" stroke-linejoin="round"/>
</svg>
