<svg width="20" height="20" viewBox="0 0 20 20" fill="none" xmlns="http://www.w3.org/2000/svg">
  <g clip-path="url(#clip0_92_960)">
    <path
      d="M0 8V16C0 16.5304 0.210714 17.0391 0.585786 17.4142C0.960859 17.7893 1.46957 18 2 18H18C18.5304 18 19.0391 17.7893 19.4142 17.4142C19.7893 17.0391 20 16.5304 20 16V8L10 12L0 8Z"
      fill="black" />
    <path
      d="M2 2C1.46957 2 0.960859 2.21071 0.585786 2.58579C0.210714 2.96086 0 3.46957 0 4L0 6L10 10L20 6V4C20 3.46957 19.7893 2.96086 19.4142 2.58579C19.0391 2.21071 18.5304 2 18 2H2Z"
      fill="black" />
  </g>
  <defs>
    <clipPath id="clip0_92_960">
      <rect width="20" height="20" fill="white" />
    </clipPath>
  </defs>
</svg>