<svg width="23" height="27" viewBox="0 0 23 27" fill="none" xmlns="http://www.w3.org/2000/svg">
  <path
    d="M19.0016 3.26097C17.9682 2.22715 16.7413 1.40704 15.3909 0.847513C14.0405 0.287985 12.593 0 11.1313 0C9.66955 0 8.22214 0.287985 6.87173 0.847513C5.52131 1.40704 4.29436 2.22715 3.26097 3.26097C2.22714 4.29436 1.40703 5.52131 0.847502 6.87172C0.287973 8.22213 0 9.66955 0 11.1313C0 12.593 0.287973 14.0405 0.847502 15.3909C1.40703 16.7413 2.22714 17.9682 3.26097 19.0016L11.1274 26.8603L19.0016 18.9939C21.0834 16.9051 22.2523 14.0764 22.2523 11.1274C22.2523 8.17843 21.0834 5.3497 19.0016 3.26097Z"
    fill="#C5BAB8" />
  <path
    d="M11.1271 19.2423C15.6089 19.2423 19.2421 15.6091 19.2421 11.1274C19.2421 6.64563 15.6089 3.01245 11.1271 3.01245C6.64537 3.01245 3.01221 6.64563 3.01221 11.1274C3.01221 15.6091 6.64537 19.2423 11.1271 19.2423Z"
    fill="white" />
</svg>