<svg width="24" height="24" viewBox="0 0 24 24" fill="none" xmlns="http://www.w3.org/2000/svg">
  <path
    d="M1.6 4.79999C0.7136 4.79999 0 5.51359 0 6.39999V17.6C0 18.4864 0.7136 19.2 1.6 19.2H22.4C23.2864 19.2 24 18.4864 24 17.6V6.39999C24 5.51359 23.2864 4.79999 22.4 4.79999H1.6ZM1.6 6.39999H4C4.15823 6.39999 4.3129 6.44691 4.44446 6.53481C4.57602 6.62272 4.67855 6.74766 4.7391 6.89384C4.79965 7.04002 4.8155 7.20088 4.78463 7.35606C4.75376 7.51124 4.67757 7.65379 4.56569 7.76567C4.4538 7.87755 4.31126 7.95375 4.15607 7.98462C4.00089 8.01548 3.84003 7.99964 3.69385 7.93909C3.54767 7.87854 3.42273 7.776 3.33482 7.64444C3.24692 7.51288 3.2 7.35821 3.2 7.19999L2.4 7.99999C2.55823 7.99999 2.7129 8.04691 2.84446 8.13481C2.97602 8.22272 3.07855 8.34766 3.1391 8.49384C3.19965 8.64002 3.2155 8.80088 3.18463 8.95606C3.15376 9.11124 3.07757 9.25379 2.96569 9.36567C2.8538 9.47755 2.71126 9.55375 2.55607 9.58462C2.40089 9.61548 2.24003 9.59964 2.09385 9.53909C1.94767 9.47854 1.82273 9.376 1.73482 9.24444C1.64692 9.11288 1.6 8.95821 1.6 8.79999V6.39999ZM12 6.39999C14.208 6.39999 16 8.90719 16 12C16 15.0928 14.208 17.6 12 17.6C9.792 17.6 8 15.0928 8 12C8 8.90719 9.792 6.39999 12 6.39999ZM20 6.39999H22.4V8.79999C22.4 8.95821 22.3531 9.11288 22.2652 9.24444C22.1773 9.376 22.0523 9.47854 21.9061 9.53909C21.76 9.59964 21.5991 9.61548 21.4439 9.58462C21.2887 9.55375 21.1462 9.47755 21.0343 9.36567C20.9224 9.25379 20.8462 9.11124 20.8154 8.95606C20.7845 8.80088 20.8003 8.64002 20.8609 8.49384C20.9214 8.34766 21.024 8.22272 21.1555 8.13481C21.2871 8.04691 21.4418 7.99999 21.6 7.99999L20.8 7.19999C20.8 7.35821 20.7531 7.51288 20.6652 7.64444C20.5773 7.776 20.4523 7.87854 20.3061 7.93909C20.16 7.99964 19.9991 8.01548 19.8439 7.98462C19.6887 7.95375 19.5462 7.87755 19.4343 7.76567C19.3224 7.65379 19.2462 7.51124 19.2154 7.35606C19.1845 7.20088 19.2003 7.04002 19.2609 6.89384C19.3214 6.74766 19.424 6.62272 19.5555 6.53481C19.6871 6.44691 19.8418 6.39999 20 6.39999ZM12 8.79999C11.4832 8.79999 11.1456 8.97439 10.9088 9.19999H13.0912C12.8544 8.97439 12.5168 8.79999 12 8.79999ZM10.6 9.59999C10.528 9.74559 10.5008 9.87359 10.472 9.99999H13.528C13.4992 9.87359 13.4736 9.74559 13.4 9.59999H10.6ZM10.4 10.4V10.8H13.6V10.4H10.4ZM10.4 11.2V11.6H13.6V11.2H10.4ZM10.4 12V12.4H13.6V12H10.4ZM10.4 12.8L10 13.2H13.2L13.6 12.8H10.4ZM9.6 13.6C9.6 13.6 9.656 13.7632 9.7632 14H13.4L12.8 13.6H9.6ZM2.4 14.4C2.61217 14.4 2.81566 14.4843 2.96569 14.6343C3.11571 14.7843 3.2 14.9878 3.2 15.2C3.2 15.4122 3.11571 15.6156 2.96569 15.7657C2.81566 15.9157 2.61217 16 2.4 16L3.2 16.8C3.2 16.6418 3.24692 16.4871 3.33482 16.3555C3.42273 16.224 3.54767 16.1214 3.69385 16.0609C3.84003 16.0003 4.00089 15.9845 4.15607 16.0154C4.31126 16.0462 4.4538 16.1224 4.56569 16.2343C4.67757 16.3462 4.75376 16.4887 4.78463 16.6439C4.8155 16.7991 4.79965 16.96 4.7391 17.1061C4.67855 17.2523 4.57602 17.3773 4.44446 17.4652C4.3129 17.5531 4.15823 17.6 4 17.6H1.6V15.2C1.6 14.9878 1.68429 14.7843 1.83431 14.6343C1.98434 14.4843 2.18783 14.4 2.4 14.4ZM9.9808 14.4C10.0544 14.5376 10.1024 14.6544 10.2 14.8H13.8288C13.9344 14.5792 14 14.4 14 14.4H9.9808ZM21.6 14.4C21.8122 14.4 22.0157 14.4843 22.1657 14.6343C22.3157 14.7843 22.4 14.9878 22.4 15.2V17.6H20C19.8418 17.6 19.6871 17.5531 19.5555 17.4652C19.424 17.3773 19.3214 17.2523 19.2609 17.1061C19.2003 16.96 19.1845 16.7991 19.2154 16.6439C19.2462 16.4887 19.3224 16.3462 19.4343 16.2343C19.5462 16.1224 19.6887 16.0462 19.8439 16.0154C19.9991 15.9845 20.16 16.0003 20.3061 16.0609C20.4523 16.1214 20.5773 16.224 20.6652 16.3555C20.7531 16.4871 20.8 16.6418 20.8 16.8L21.6 16C21.3878 16 21.1843 15.9157 21.0343 15.7657C20.8843 15.6156 20.8 15.4122 20.8 15.2C20.8 14.9878 20.8843 14.7843 21.0343 14.6343C21.1843 14.4843 21.3878 14.4 21.6 14.4ZM10.5056 15.2C10.632 15.3456 10.7696 15.4816 10.9216 15.6H13.1936C13.3536 15.4768 13.4944 15.3408 13.6 15.2H10.5056Z"
    fill="black" />
</svg>