<svg width="30" height="24" viewBox="0 0 30 24" fill="none" xmlns="http://www.w3.org/2000/svg">
  <g clip-path="url(#clip0_92_970)">
    <path
      d="M29.2501 21H0.750133C0.335758 21 0.000133248 21.3356 0.000133248 21.75V23.25C0.000133248 23.6644 0.335758 24 0.750133 24H29.2501C29.6645 24 30.0001 23.6644 30.0001 23.25V21.75C30.0001 21.3356 29.6645 21 29.2501 21ZM3.77591 15.997C4.07029 16.3177 4.48373 16.4995 4.91638 16.4991L11.0354 16.4906C11.5183 16.49 11.9943 16.3756 12.4248 16.1569L26.0636 9.23578C27.317 8.59969 28.4406 7.69172 29.2051 6.5025C30.0634 5.1675 30.1567 4.20141 29.8178 3.51891C29.4798 2.83594 28.6581 2.33438 27.0873 2.23219C25.6881 2.14125 24.2964 2.50969 23.0429 3.14531L18.4253 5.4886L8.17373 1.64203C8.05047 1.559 7.90727 1.51039 7.75893 1.50125C7.61059 1.4921 7.4625 1.52274 7.32998 1.59L4.24795 3.15422C3.74779 3.40781 3.62685 4.07531 4.0056 4.49156L11.3284 9.09L6.49045 11.5453L3.09904 9.83578C2.9822 9.77687 2.85314 9.74627 2.72229 9.74643C2.59143 9.74659 2.46245 9.77752 2.34576 9.83672L0.464665 10.7916C-0.0247105 11.04 -0.153617 11.6878 0.203571 12.1078L3.77591 15.997Z"
      fill="black" />
  </g>
  <defs>
    <clipPath id="clip0_92_970">
      <rect width="30" height="24" fill="white" />
    </clipPath>
  </defs>
</svg>